# xmcd CD Database Entry
#
# Track frame offsets:
# 150
# 6553
# 11198
# 20158
# 29459
# 33081
# 92732
# 141327
# 159681
# 175374
# 183802
# 202435
# 224348
# 237499
# 240651
# 242223
# 250930
# 278976
# 293839
# 296627
# 303200
# 306185
# 311374
# 322553
#
# Disc length: 4362 seconds
#
# Revision: 1
# Processed by: cddbd v1.4PL0 Copyright (c) Steve Scherf et al.
# Submitted via: tcd 2.0b
#
DISCID=64110818
DTITLE=不明瞭
DYEAR=1900
DGENRE=
TTITLE0=第 1 音軌
TTITLE1=第 2 音軌
TTITLE2=第 3 音軌
TTITLE3=第 4 音軌
TTITLE4=第 5 音軌
TTITLE5=第 6 音軌
TTITLE6=第 7 音軌
TTITLE7=第 8 音軌
TTITLE8=第 9 音軌
TTITLE9=第 10 音軌
TTITLE10=第 11 音軌
TTITLE11=第 12 音軌
TTITLE12=第 13 音軌
TTITLE13=第 14 音軌
TTITLE14=第 15 音軌
TTITLE15=第 16 音軌
TTITLE16=第 17 音軌
TTITLE17=第 18 音軌
TTITLE18=第 19 音軌
TTITLE19=第 20 音軌
TTITLE20=第 21 音軌
TTITLE21=第 22 音軌
TTITLE22=第 23 音軌
TTITLE23=第 24 音軌
EXTD=
EXTT0=
EXTT1=
EXTT2=
EXTT3=
EXTT4=
EXTT5=
EXTT6=
EXTT7=
EXTT8=
EXTT9=
EXTT10=
EXTT11=
EXTT12=
EXTT13=
EXTT14=
EXTT15=
EXTT16=
EXTT17=
EXTT18=
EXTT19=
EXTT20=
EXTT21=
EXTT22=
EXTT23=
PLAYORDER=
